# xmcd
#
# Track frame offsets: 
#        150
#        21892
#        41727
#        63230
#        81572
#        98869
#        113262
#        134798
#        155742
#        178019
#        194477
#        207171
#        231130
#        236332
#
# Disc length: 3409 seconds
#
# Revision: 10
# Processed by: cddbd v1.5.2PL0 Copyright (c) Steve Scherf et al.
# Submitted via: ExactAudioCopyFreeDBPlugin 1.0
#
DISCID=c10d4f0e
DTITLE=Macy Gray - The Id
DYEAR=2001
DGENRE=R&B
TTITLE0=Relating To A Psychopath
TTITLE1=Boo
TTITLE2=Sexual Revolution
TTITLE3=Hey Young World Part 2 Feat. Slick Rick
TTITLE4=Sweet Baby Feat. Erykah Badu
TTITLE5=Harry
TTITLE6=Gimme All Your Lovin' Or I Will Kill You
TTITLE7=Don't Come Around Feat. Sunshine Anderson
TTITLE8=My Nutmeg Phantasy Feat. Angie Stone and Mos Def
TTITLE9=Freak Like Me
TTITLE10=Oblivion
TTITLE11=Forgiveness
TTITLE12=Blowin' Up Your Speakers
TTITLE13=Shed
EXTD=YEAR: 2001
EXTT0=
EXTT1=
EXTT2=
EXTT3=
EXTT4=
EXTT5=
EXTT6=
EXTT7=
EXTT8=
EXTT9=
EXTT10=
EXTT11=
EXTT12=
EXTT13=Not sure what this one is - no label for it on the back and I h
EXTT13=aven't listened to it yet!
PLAYORDER=
